<?xml version="1.0" standalone="no"?>
<!DOCTYPE svg PUBLIC "-//W3C//DTD SVG 20010904//EN"
 "http://www.w3.org/TR/2001/REC-SVG-20010904/DTD/svg10.dtd">
<svg version="1.0" xmlns="http://www.w3.org/2000/svg"
 width="300.000000pt" height="90.000000pt" viewBox="0 0 300.000000 90.000000"
 preserveAspectRatio="xMidYMid meet">

<g transform="translate(0.000000,90.000000) scale(0.100000,-0.100000)"
fill="#000000" stroke="none">
<path d="M442 750 c-15 -27 -22 -30 -64 -30 -35 0 -54 6 -68 20 l-20 20 0
-328 c0 -306 1 -330 18 -345 16 -15 51 -17 290 -17 l272 0 0 325 0 325 -141 0
c-121 0 -140 2 -135 15 3 8 9 22 12 30 5 13 -6 15 -70 15 -75 0 -77 -1 -94
-30z"/>
<path d="M1002 486 c4 -111 23 -115 23 -4 0 57 -4 83 -13 86 -10 3 -12 -15
-10 -82z"/>
<path d="M1060 479 l0 -90 43 3 c52 4 60 31 10 36 -43 4 -47 39 -5 44 36 4 36
32 0 36 -42 5 -36 32 7 32 24 0 35 5 35 15 0 11 -12 15 -45 15 l-45 0 0 -91z"/>
<path d="M1186 554 c-22 -22 -20 -31 14 -74 37 -46 37 -54 5 -48 -14 3 -28 1
-32 -5 -9 -14 26 -37 45 -30 39 15 43 60 7 93 -27 26 -34 56 -10 47 19 -8 31
13 14 24 -19 12 -25 11 -43 -7z"/>
<path d="M1644 557 c-9 -24 1 -162 11 -162 6 0 11 13 13 29 l4 28 34 -33 c24
-23 34 -28 34 -17 0 8 -7 21 -15 28 -13 11 -13 15 0 33 32 46 6 107 -46 107
-16 0 -32 -6 -35 -13z m66 -32 c16 -20 5 -45 -20 -45 -16 0 -20 7 -20 30 0 33
19 40 40 15z"/>
<path d="M1832 483 l3 -88 35 2 c100 5 91 173 -10 173 l-31 0 3 -87z m70 40
c31 -28 16 -93 -22 -93 -18 0 -20 7 -20 55 0 59 10 68 42 38z"/>
<path d="M1964 557 c-3 -8 -4 -47 -2 -88 l3 -74 45 0 c33 0 45 4 45 15 0 10
-12 16 -32 18 -25 2 -33 8 -33 23 0 14 7 19 25 19 18 0 25 5 25 20 0 15 -7 20
-25 20 -16 0 -25 6 -25 15 0 10 11 15 35 15 24 0 35 5 35 15 0 20 -88 21 -96
2z"/>
<path d="M2167 550 c-46 -37 -34 -130 19 -150 28 -11 64 2 64 24 0 8 -10 11
-32 8 -35 -5 -58 16 -58 53 0 30 34 59 60 52 16 -4 20 -1 18 11 -5 25 -40 26
-71 2z"/>
<path d="M2414 557 c-3 -8 -4 -47 -2 -88 l3 -74 33 2 c50 2 72 27 72 84 0 39
-4 51 -26 68 -30 24 -72 28 -80 8z m70 -33 c32 -31 15 -94 -26 -94 -15 0 -18
9 -18 55 0 59 13 70 44 39z"/>
<path d="M2550 480 c0 -53 4 -90 10 -90 6 0 10 37 10 90 0 53 -4 90 -10 90 -6
0 -10 -37 -10 -90z"/>
<path d="M2610 555 c0 -10 10 -15 30 -15 17 0 30 -2 30 -5 0 -2 -16 -33 -35
-68 -19 -35 -35 -67 -35 -70 0 -4 25 -7 55 -7 48 0 55 2 55 20 0 16 -7 20 -30
20 -16 0 -30 2 -30 5 0 3 14 32 30 65 17 33 30 62 30 65 0 3 -22 5 -50 5 -38
0 -50 -4 -50 -15z"/>
<path d="M1340 476 c0 -56 4 -86 9 -80 5 5 11 25 13 44 l3 35 21 -34 21 -33
19 32 19 32 5 -37 c9 -67 25 -42 27 45 3 82 2 84 -15 64 -9 -12 -25 -37 -36
-55 -15 -28 -20 -31 -28 -19 -5 8 -20 33 -33 55 l-24 40 -1 -89z"/>
<path d="M1527 479 c-16 -44 -27 -83 -24 -86 9 -8 27 7 27 23 0 23 49 17 71
-8 13 -17 18 -19 19 -8 0 20 -51 160 -59 160 -3 0 -19 -36 -34 -81z m41 -18
c-15 -5 -21 7 -13 26 7 17 8 17 15 -2 4 -11 3 -22 -2 -24z"/>
<path d="M2296 480 c-16 -45 -26 -83 -23 -86 9 -9 27 6 27 22 0 23 57 18 65
-6 7 -21 25 -28 25 -9 0 18 -52 159 -59 159 -3 0 -19 -36 -35 -80z m42 -19
c-15 -5 -21 7 -13 26 7 17 8 17 15 -2 4 -11 3 -22 -2 -24z"/>
</g>
</svg>
