<?xml version="1.0" standalone="no"?>
<!DOCTYPE svg PUBLIC "-//W3C//DTD SVG 20010904//EN"
 "http://www.w3.org/TR/2001/REC-SVG-20010904/DTD/svg10.dtd">
<svg version="1.0" xmlns="http://www.w3.org/2000/svg"
 width="300.000000pt" height="94.000000pt" viewBox="0 0 300.000000 94.000000"
 preserveAspectRatio="xMidYMid meet">

<g transform="translate(0.000000,94.000000) scale(0.100000,-0.100000)"
fill="#000000" stroke="none">
<path d="M960 855 c-19 -22 -8 -25 13 -3 9 10 13 18 8 18 -5 0 -14 -7 -21 -15z"/>
<path d="M745 808 c-4 -10 -4 -26 0 -35 8 -17 8 -17 12 0 3 9 3 25 0 35 -4 16
-4 16 -12 0z"/>
<path d="M721 810 c-1 -3 -5 -20 -10 -38 -6 -20 -6 -30 0 -27 5 4 9 1 9 -6 0
-8 3 -9 9 -3 6 5 6 24 1 44 -4 19 -8 33 -9 30z"/>
<path d="M868 798 c-9 -22 18 -46 34 -30 7 7 8 15 4 19 -4 4 -11 1 -16 -6 -6
-11 -9 -8 -12 10 -2 19 -5 21 -10 7z"/>
<path d="M825 779 c-4 -6 -5 -12 -2 -15 2 -3 7 2 10 11 7 17 1 20 -8 4z"/>
<path d="M775 770 c-3 -5 -1 -10 4 -10 6 0 11 5 11 10 0 6 -2 10 -4 10 -3 0
-8 -4 -11 -10z"/>
<path d="M977 773 c-14 -14 -7 -32 10 -26 11 4 13 8 5 11 -7 2 -10 8 -6 13 6
10 0 12 -9 2z"/>
<path d="M620 756 c0 -9 5 -16 10 -16 6 0 10 4 10 9 0 6 -4 13 -10 16 -5 3
-10 -1 -10 -9z"/>
<path d="M1080 745 c0 -8 4 -15 8 -15 5 0 9 7 9 15 0 8 -4 15 -9 15 -4 0 -8
-7 -8 -15z"/>
<path d="M553 738 c-26 -12 -27 -16 -13 -38 8 -13 10 -12 10 4 0 10 8 25 18
32 20 16 15 17 -15 2z"/>
<path d="M1045 740 c-3 -6 1 -7 9 -4 18 7 21 14 7 14 -6 0 -13 -4 -16 -10z"/>
<path d="M940 733 c0 -5 10 -18 23 -29 l22 -19 -20 25 c-11 14 -21 27 -22 29
-2 2 -3 0 -3 -6z"/>
<path d="M580 720 c-13 -8 -12 -10 3 -10 9 0 17 5 17 10 0 12 -1 12 -20 0z"/>
<path d="M770 715 c-7 -8 -24 -15 -39 -15 -69 0 -166 -49 -191 -96 -12 -22
-11 -30 8 -69 26 -55 38 -57 40 -8 2 56 51 100 140 127 36 12 28 -25 -15 -69
-24 -24 -30 -34 -16 -26 30 16 42 13 19 -4 -22 -16 -16 -31 9 -22 8 4 15 16
15 27 0 13 7 20 19 20 15 0 19 6 18 27 -2 22 3 29 21 31 26 4 25 3 10 53 -12
43 -19 47 -38 24z m28 -42 c-2 -9 -10 -19 -18 -21 -13 -4 -13 -3 -2 11 12 14
8 14 -40 3 -98 -23 -158 -70 -158 -125 -1 -25 -1 -25 -16 -6 -24 33 -13 66 34
102 32 24 55 33 85 34 23 1 53 5 67 9 40 13 52 11 48 -7z"/>
<path d="M341 696 c-10 -12 -8 -13 8 -9 13 3 21 1 21 -8 0 -7 2 -10 5 -7 7 7
-5 38 -15 38 -4 0 -13 -6 -19 -14z"/>
<path d="M480 676 c0 -8 5 -18 10 -21 6 -3 10 1 10 9 0 8 -4 18 -10 21 -5 3
-10 -1 -10 -9z"/>
<path d="M380 655 c0 -5 5 -17 10 -25 5 -8 10 -10 10 -5 0 6 -5 17 -10 25 -5
8 -10 11 -10 5z"/>
<path d="M441 624 c-13 -14 -21 -27 -17 -31 3 -3 6 -1 6 6 0 7 4 10 9 7 13 -8
41 18 33 31 -5 8 -14 4 -31 -13z"/>
<path d="M1400 585 c0 -37 4 -65 10 -65 6 0 10 28 10 65 0 37 -4 65 -10 65 -6
0 -10 -28 -10 -65z"/>
<path d="M1450 585 l0 -65 48 2 c43 1 44 2 10 5 -33 4 -38 8 -38 29 0 21 5 24
36 24 21 0 33 4 29 10 -3 6 -19 10 -36 10 -19 0 -29 5 -29 15 0 10 11 15 35
15 19 0 35 5 35 10 0 6 -20 10 -45 10 l-45 0 0 -65z"/>
<path d="M1579 634 c-18 -22 -1 -46 39 -56 18 -5 32 -15 32 -22 0 -22 -31 -28
-56 -11 -25 16 -33 8 -12 -13 17 -17 63 -15 79 4 18 21 1 46 -40 58 -17 5 -31
15 -31 22 0 17 42 18 58 2 9 -9 12 -8 12 4 0 30 -59 38 -81 12z"/>
<path d="M396 595 c-3 -9 -20 -22 -38 -30 -18 -8 -25 -14 -16 -15 20 0 76 45
67 55 -4 3 -9 -1 -13 -10z"/>
<path d="M628 517 c-15 -23 -24 -45 -19 -50 4 -4 25 0 45 8 26 11 51 14 77 10
39 -7 54 -25 21 -25 -10 0 -23 -5 -28 -10 -6 -6 -33 -13 -61 -16 -45 -6 -54
-3 -105 30 -63 42 -115 53 -110 22 2 -10 -2 -40 -8 -66 -10 -43 -9 -52 10 -89
16 -31 18 -46 10 -60 -17 -33 -11 -45 9 -20 17 21 22 22 38 11 10 -7 26 -15
36 -18 17 -6 25 -44 8 -44 -4 0 -6 -11 -4 -24 3 -13 0 -27 -6 -30 -8 -5 -7
-11 2 -20 10 -11 16 -9 34 11 13 13 23 29 23 35 0 7 -6 3 -14 -8 -17 -22 -32
-13 -21 13 5 10 7 23 6 29 -1 7 3 24 9 39 9 24 13 26 49 20 27 -4 42 -2 53 8
8 8 29 18 46 22 18 4 32 13 32 21 0 8 7 17 15 20 8 4 15 15 15 26 0 14 5 18
15 14 18 -7 20 5 3 22 -16 16 -57 15 -88 -3 -14 -8 -45 -15 -70 -16 -25 -1
-35 -4 -22 -6 25 -5 30 -23 6 -23 -8 0 -12 -4 -9 -10 3 -5 2 -10 -3 -10 -5 0
-14 12 -20 26 -13 27 -16 26 -68 -13 -40 -30 -52 -29 -60 3 -5 20 -9 23 -16
12 -6 -8 -7 13 -3 57 4 39 9 72 12 75 6 7 89 -39 109 -61 24 -27 1 -24 -33 4
-43 36 -61 40 -59 12 1 -19 4 -21 19 -13 15 7 24 5 43 -13 21 -19 31 -21 91
-17 37 3 82 13 98 22 17 9 39 16 51 16 11 0 33 13 49 30 26 28 27 30 9 37 -24
10 -105 10 -168 0 -46 -7 -48 -6 -34 10 22 26 30 43 21 43 -4 0 -20 -19 -35
-43z m192 -21 c0 -2 -3 -11 -6 -20 -8 -20 -34 -21 -34 -2 0 8 -8 17 -17 19
-10 3 -1 5 20 6 20 0 37 -1 37 -3z m-54 -108 c-21 -8 -25 -13 -15 -19 11 -8
10 -12 -5 -24 -10 -8 -23 -12 -27 -9 -5 3 -9 1 -9 -5 0 -6 -13 -17 -29 -25
-23 -12 -30 -13 -34 -3 -9 23 22 52 56 52 19 0 32 5 32 13 0 15 24 32 45 31 8
0 2 -5 -14 -11z m-191 -48 c-3 -6 -21 -17 -38 -26 l-32 -15 30 25 c30 26 51
34 40 16z m1 -35 c-26 -19 -42 -19 -26 0 7 8 20 15 29 15 13 -1 13 -3 -3 -15z
m-11 -45 c3 -5 2 -10 -4 -10 -5 0 -13 5 -16 10 -3 6 -2 10 4 10 5 0 13 -4 16
-10z"/>
<path d="M670 330 c-14 -11 -20 -20 -14 -20 6 0 19 9 29 20 23 25 17 25 -15 0z"/>
<path d="M2340 429 c0 -5 5 -7 10 -4 6 3 10 8 10 11 0 2 -4 4 -10 4 -5 0 -10
-5 -10 -11z"/>
<path d="M471 394 c0 -11 3 -14 6 -6 3 7 2 16 -1 19 -3 4 -6 -2 -5 -13z"/>
<path d="M1402 328 l1 -73 6 60 6 60 18 -58 c10 -32 22 -56 25 -52 4 3 15 27
24 53 l16 47 1 -52 c1 -29 6 -53 11 -53 6 0 10 30 10 70 0 85 -20 96 -40 23
-19 -71 -23 -73 -40 -14 -24 83 -40 78 -38 -11z"/>
<path d="M1583 383 c-3 -10 -15 -40 -25 -67 -20 -51 -17 -77 3 -32 17 36 53
35 73 -1 23 -42 19 -6 -6 59 -24 60 -34 70 -45 41z m27 -45 c0 -5 -7 -8 -15
-8 -17 0 -18 2 -9 25 5 13 8 14 15 3 5 -7 9 -16 9 -20z"/>
<path d="M1670 336 c0 -36 5 -68 10 -71 6 -4 10 8 10 29 0 47 21 47 56 1 30
-40 46 -40 20 1 -16 24 -16 27 -1 44 13 15 14 23 5 39 -8 17 -20 21 -55 21
l-45 0 0 -64z m86 33 c8 -14 -14 -29 -43 -29 -16 0 -23 6 -23 20 0 15 7 20 29
20 17 0 33 -5 37 -11z"/>
<path d="M1860 330 c0 -70 0 -70 28 -70 46 0 72 25 72 70 0 48 -21 70 -66 70
l-34 0 0 -70z m80 30 c12 -22 4 -60 -14 -72 -6 -4 -21 -8 -33 -8 -21 0 -23 5
-23 50 0 49 1 50 30 50 19 0 33 -7 40 -20z"/>
<path d="M1990 330 l0 -70 44 0 c25 0 48 5 51 10 4 6 -10 10 -34 10 -37 0 -41
3 -41 24 0 21 5 25 38 29 l37 4 -37 1 c-31 2 -38 6 -38 22 0 16 7 20 35 20 19
0 35 5 35 10 0 6 -20 10 -45 10 l-45 0 0 -70z"/>
<path d="M2177 382 c-34 -37 -8 -122 37 -122 19 0 63 37 54 45 -4 4 -14 0 -23
-9 -34 -33 -68 -8 -63 46 2 26 8 34 26 36 13 2 30 -2 38 -9 21 -17 28 -5 9 15
-22 21 -58 20 -78 -2z"/>
<path d="M2311 344 c-25 -65 -28 -104 -5 -61 19 34 51 35 66 2 10 -22 28 -35
28 -20 0 14 -53 135 -60 135 -4 0 -17 -25 -29 -56z m43 1 c4 -10 -1 -15 -14
-15 -13 0 -18 5 -14 15 4 8 10 15 14 15 4 0 10 -7 14 -15z"/>
<path d="M2420 330 c0 -70 0 -70 28 -70 48 0 72 25 72 75 0 50 -16 65 -69 65
l-31 0 0 -70z m82 25 c16 -36 -3 -75 -37 -75 -23 0 -25 3 -25 50 0 47 2 50 25
50 17 0 29 -8 37 -25z"/>
<path d="M2550 336 c0 -36 5 -68 10 -71 6 -4 10 20 10 64 0 41 -4 71 -10 71
-6 0 -10 -28 -10 -64z"/>
<path d="M2600 390 c0 -5 14 -10 30 -10 17 0 30 -3 30 -6 0 -3 -16 -25 -35
-48 -19 -24 -35 -48 -35 -55 0 -7 19 -11 50 -11 28 0 50 5 50 10 0 6 -16 10
-35 10 -19 0 -35 3 -35 8 0 4 16 27 35 51 19 24 35 48 35 52 0 5 -20 9 -45 9
-25 0 -45 -4 -45 -10z"/>
<path d="M828 213 c7 -3 16 -2 19 1 4 3 -2 6 -13 5 -11 0 -14 -3 -6 -6z"/>
<path d="M732 185 c0 -16 2 -22 5 -12 2 9 2 23 0 30 -3 6 -5 -1 -5 -18z"/>
<path d="M870 194 c-10 -11 -9 -14 8 -14 18 0 20 -5 17 -37 -4 -35 -4 -36 4
-8 13 46 12 62 -3 68 -8 3 -20 -1 -26 -9z"/>
<path d="M757 176 c-4 -10 -7 -22 -7 -27 0 -13 28 1 34 17 3 8 2 13 -3 9 -5
-3 -11 0 -13 7 -3 7 -7 5 -11 -6z"/>
<path d="M800 181 c0 -6 4 -13 10 -16 6 -3 7 1 4 9 -7 18 -14 21 -14 7z"/>
<path d="M680 168 c0 -11 28 -10 35 1 3 6 -4 9 -15 8 -11 -1 -20 -5 -20 -9z"/>
<path d="M615 161 c-3 -5 -1 -12 5 -16 5 -3 10 1 10 9 0 18 -6 21 -15 7z"/>
<path d="M657 150 c-3 -11 -1 -20 4 -20 5 0 9 9 9 20 0 11 -2 20 -4 20 -2 0
-6 -9 -9 -20z"/>
</g>
</svg>
